<?xml version="1.0" standalone="no"?>
<!DOCTYPE svg PUBLIC "-//W3C//DTD SVG 20010904//EN"
 "http://www.w3.org/TR/2001/REC-SVG-20010904/DTD/svg10.dtd">
<svg version="1.0" xmlns="http://www.w3.org/2000/svg"
 width="172.000000pt" height="28.000000pt" viewBox="185 -20 170 60"
 preserveAspectRatio="xMidYMid meet" fill="#0d6efd">

<g transform="translate(0.000000,238.000000) scale(0.100000,-0.100000)"
fill="#0d6efd" stroke="none">
<path d="M1300 2280 l0 -260 1360 0 1360 0 0 260 0 260 -1360 0 -1360 0 0
-260z m2698 3 l-3 -238 -1335 0 -1335 0 -3 238 -2 237 1340 0 1340 0 -2 -237z"/>
<path d="M1380 2290 l0 -180 705 0 705 0 0 180 0 180 -705 0 -705 0 0 -180z
m192 58 c26 -26 7 -39 -21 -14 -51 46 -124 -29 -75 -78 21 -22 57 -20 79 4 21
23 39 17 25 -10 -14 -25 -65 -42 -96 -30 -51 20 -61 104 -17 138 27 20 80 15
105 -10z m159 -52 c34 -79 33 -76 14 -76 -8 0 -15 7 -15 15 0 11 -11 15 -39
15 -25 0 -41 -5 -45 -15 -9 -25 -28 -18 -20 8 17 56 55 128 65 125 6 -2 24
-34 40 -72z m115 34 c15 -22 28 -40 29 -40 1 0 14 18 29 40 14 22 31 40 36 40
6 0 10 -32 10 -75 0 -43 -4 -75 -10 -75 -5 0 -10 24 -10 53 l0 52 -21 -32
c-12 -18 -27 -33 -34 -33 -7 0 -22 15 -34 33 l-21 32 0 -52 c0 -29 -4 -53 -10
-53 -6 0 -10 32 -10 75 0 43 4 75 10 75 5 0 22 -18 36 -40z m258 24 c34 -34
11 -84 -39 -84 -31 0 -35 -3 -35 -25 0 -14 -4 -25 -10 -25 -6 0 -10 32 -10 75
l0 75 39 0 c23 0 46 -7 55 -16z m154 -56 c18 -44 26 -75 20 -77 -6 -2 -15 4
-20 13 -12 21 -74 22 -82 1 -3 -8 -12 -15 -20 -15 -10 0 -6 18 17 75 17 41 36
75 43 75 6 0 25 -33 42 -72z m92 -3 c0 -60 -3 -75 -15 -75 -12 0 -15 15 -15
75 0 60 3 75 15 75 12 0 15 -15 15 -75z m182 53 c26 -26 7 -39 -21 -14 -51 46
-124 -29 -75 -78 18 -19 55 -21 72 -4 19 19 14 28 -12 28 -14 0 -28 5 -31 10
-4 6 12 10 39 10 37 0 46 -3 46 -17 -1 -25 -22 -51 -53 -62 -79 -30 -137 85
-70 137 27 20 80 15 105 -10z m127 -35 l41 -56 0 56 c0 32 5 57 10 57 6 0 10
-32 10 -75 0 -91 -11 -95 -60 -23 l-35 52 -3 -52 c-5 -80 -22 -62 -22 23 0 41
4 75 9 75 6 0 28 -25 50 -57z"/>
<path d="M1677 2309 c-10 -36 -9 -39 13 -39 23 0 26 18 7 45 -13 17 -14 17
-20 -6z"/>
<path d="M2030 2320 c0 -28 3 -31 28 -28 21 2 27 8 27 28 0 20 -6 26 -27 28
-25 3 -28 0 -28 -28z"/>
<path d="M2202 2301 c-10 -29 -10 -31 14 -31 27 0 29 5 10 39 l-13 24 -11 -32z"/>
<path d="M2870 2350 c0 -13 7 -20 20 -20 18 0 20 -7 20 -55 0 -48 2 -55 20
-55 18 0 20 7 20 55 0 48 2 55 20 55 13 0 20 7 20 20 0 18 -7 20 -60 20 -53 0
-60 -2 -60 -20z"/>
<path d="M3020 2296 c0 -69 2 -76 20 -76 15 0 20 7 20 25 0 14 4 25 8 25 5 0
14 -11 20 -25 7 -15 20 -25 32 -25 23 0 24 4 9 32 -8 14 -8 23 0 31 16 16 14
52 -4 67 -8 7 -35 15 -60 18 l-45 5 0 -77z m75 19 c0 -11 -8 -21 -17 -23 -14
-3 -18 3 -18 23 0 20 4 26 18 23 9 -2 17 -12 17 -23z"/>
<path d="M3216 2361 c-4 -5 -18 -39 -31 -75 -24 -64 -24 -66 -5 -66 11 0 20 5
20 10 0 6 16 10 35 10 19 0 35 -4 35 -10 0 -5 9 -10 20 -10 11 0 20 2 20 3 0
2 -13 35 -28 73 -27 64 -52 89 -66 65z m34 -78 c0 -7 -7 -13 -15 -13 -16 0
-19 9 -9 35 5 13 8 14 15 3 5 -7 9 -19 9 -25z"/>
<path d="M3356 2349 c-52 -41 -20 -129 48 -129 34 0 92 52 64 58 -10 2 -27 -3
-39 -12 -29 -20 -59 -5 -59 29 0 34 30 49 59 29 12 -9 29 -14 39 -12 15 3 13
7 -10 31 -32 32 -66 34 -102 6z"/>
<path d="M3510 2295 c0 -60 3 -75 15 -75 10 0 15 10 15 30 0 19 5 30 14 30 7
0 19 -13 26 -30 9 -22 19 -30 36 -30 l24 0 -19 38 c-17 33 -17 41 -5 62 18 34
17 50 -4 50 -11 0 -22 -12 -29 -31 -14 -37 -37 -34 -41 4 -2 15 -10 27 -18 27
-11 0 -14 -17 -14 -75z"/>
<path d="M3670 2295 l0 -75 50 0 c38 0 50 4 50 15 0 10 -10 15 -30 15 -20 0
-30 5 -30 15 0 9 9 15 25 15 16 0 25 6 25 15 0 9 -9 15 -25 15 -16 0 -25 6
-25 15 0 9 9 15 25 15 16 0 25 6 25 15 0 11 -12 15 -45 15 l-45 0 0 -75z"/>
<path d="M3800 2296 c0 -69 2 -76 20 -76 15 0 20 7 20 28 l1 27 22 -27 c13
-16 30 -28 40 -28 14 0 15 4 5 25 -9 19 -9 28 0 37 17 17 15 53 -3 68 -8 7
-35 15 -60 18 l-45 5 0 -77z m78 23 c4 -19 -27 -34 -41 -20 -14 14 0 43 20 39
10 -2 19 -10 21 -19z"/>
</g>
</svg>
