<?xml version="1.0" standalone="no"?>
<!DOCTYPE svg PUBLIC "-//W3C//DTD SVG 20010904//EN"
 "http://www.w3.org/TR/2001/REC-SVG-20010904/DTD/svg10.dtd">
<svg version="1.0" xmlns="http://www.w3.org/2000/svg"
 width="500.000000pt" height="500.000000pt" viewBox="0 0 500.000000 500.000000"
 preserveAspectRatio="xMidYMid meet">

<g transform="translate(0.000000,500.000000) scale(0.100000,-0.100000)"
fill="#000000" stroke="none">
<path d="M760 2245 l0 -735 1300 0 1300 0 0 735 0 735 -1300 0 -1300 0 0 -735z
m2570 0 l0 -705 -1275 0 -1275 0 0 705 0 705 1275 0 1275 0 0 -705z"/>
<path d="M850 2500 l0 -390 1220 0 1220 0 0 390 0 390 -1220 0 -1220 0 0 -390z
m257 123 c24 -16 43 -43 43 -62 0 -19 -18 -12 -48 19 -57 57 -153 31 -168 -46
-19 -103 94 -167 168 -94 16 17 36 30 44 30 12 0 12 -4 -1 -30 -41 -80 -188
-81 -230 0 -23 44 -19 111 8 151 38 57 123 72 184 32z m1650 16 c29 -11 83
-57 83 -71 0 -17 -30 -7 -54 17 -60 60 -166 12 -166 -75 0 -87 106 -135 165
-75 40 39 33 55 -25 55 -38 0 -50 4 -50 15 0 12 14 15 70 15 78 0 81 -4 56
-64 -29 -70 -115 -98 -186 -61 -66 34 -85 144 -34 204 36 43 92 59 141 40z
m-1353 -116 c27 -65 51 -124 53 -130 11 -27 -27 -11 -42 17 -15 28 -19 30 -78
30 -60 0 -63 -1 -74 -30 -6 -17 -19 -30 -28 -30 -20 0 -23 -10 42 148 32 80
51 112 62 112 12 0 31 -34 65 -117z m214 41 l50 -76 51 76 c74 109 81 104 81
-54 0 -107 -3 -130 -15 -130 -11 0 -15 20 -17 97 l-3 97 -40 -62 c-22 -34 -47
-62 -55 -62 -8 0 -33 28 -55 62 l-40 62 -3 -97 c-2 -77 -6 -97 -17 -97 -12 0
-15 23 -15 130 0 103 3 130 14 130 7 0 36 -34 64 -76z m447 51 c17 -16 25 -35
25 -60 0 -55 -35 -85 -100 -85 l-50 0 0 -45 c0 -33 -4 -45 -15 -45 -13 0 -15
21 -15 130 l0 130 65 0 c57 0 69 -3 90 -25z m255 -63 c19 -48 43 -106 52 -129
17 -42 17 -43 -1 -43 -12 0 -23 11 -30 30 -10 29 -12 30 -75 30 -62 0 -64 -1
-75 -30 -5 -16 -17 -30 -25 -30 -22 0 -21 5 27 121 24 57 46 112 50 122 3 9
14 17 24 17 13 0 27 -23 53 -88z m180 -42 c0 -123 -1 -130 -20 -130 -19 0 -20
7 -20 130 0 123 1 130 20 130 19 0 20 -7 20 -130z m540 32 l65 -94 3 96 c2 88
4 96 22 96 19 0 20 -7 20 -130 0 -166 -8 -168 -105 -31 l-70 100 -3 -100 c-2
-79 -6 -99 -17 -99 -12 0 -15 23 -15 131 0 162 6 164 100 31z"/>
<path d="M1311 2528 c-12 -28 -19 -53 -17 -55 2 -2 24 -3 49 -1 l44 3 -20 53
c-11 28 -23 52 -27 52 -4 0 -17 -23 -29 -52z"/>
<path d="M1940 2554 l0 -55 47 3 c39 2 50 8 62 29 13 24 13 29 -2 53 -15 22
-25 26 -62 26 l-45 0 0 -56z"/>
<path d="M2242 2535 c-12 -31 -22 -59 -22 -61 0 -2 22 -4 49 -4 l50 0 -21 53
c-12 28 -24 56 -28 60 -4 4 -17 -17 -28 -48z"/>
<path d="M1984 1946 c-49 -22 -74 -61 -74 -118 0 -61 21 -103 61 -124 41 -21
111 -20 147 2 26 15 62 61 62 78 0 13 -75 5 -91 -10 -26 -24 -69 -21 -91 6
-25 30 -23 56 7 85 29 30 45 31 79 4 17 -14 37 -19 60 -17 l35 3 -16 34 c-11
22 -31 40 -57 52 -48 22 -80 23 -122 5z"/>
<path d="M1100 1915 c0 -34 1 -35 40 -35 l40 0 0 -95 0 -95 35 0 35 0 0 95 0
95 40 0 c39 0 40 1 40 35 l0 35 -115 0 -115 0 0 -35z"/>
<path d="M1370 1820 l0 -130 35 0 c33 0 35 2 35 35 0 27 4 35 18 35 11 0 25
-14 35 -35 15 -31 21 -35 57 -35 22 0 40 3 40 6 0 4 -9 21 -20 40 l-21 32 21
34 c28 47 26 84 -9 119 -28 27 -34 29 -110 29 l-81 0 0 -130z m138 39 c2 -21
-2 -28 -23 -33 -35 -9 -45 -1 -45 35 0 28 2 30 33 27 26 -2 33 -8 35 -29z"/>
<path d="M1663 1823 l-50 -128 36 -3 c27 -3 39 1 50 17 19 30 96 30 104 1 4
-16 14 -20 46 -20 l41 0 -26 68 c-14 37 -36 94 -49 127 -22 58 -24 60 -62 63
l-40 3 -50 -128z m106 -4 c14 -41 15 -39 -14 -39 -26 0 -29 9 -19 48 9 31 20
28 33 -9z"/>
<path d="M2220 1820 l0 -130 40 0 40 0 0 50 c0 38 4 50 15 50 8 0 26 -22 40
-50 24 -47 27 -50 65 -50 22 0 40 3 40 6 0 3 -14 32 -30 63 l-31 57 26 57 c14
32 25 62 25 67 0 6 -17 10 -38 10 -35 0 -39 -3 -52 -42 -11 -31 -21 -44 -37
-46 -21 -3 -23 1 -23 42 l0 46 -40 0 -40 0 0 -130z"/>
<path d="M2500 1820 l0 -130 95 0 95 0 0 30 c0 30 -1 30 -55 30 -48 0 -55 2
-55 20 0 17 7 20 45 20 43 0 45 1 45 30 0 29 -2 30 -45 30 -38 0 -45 3 -45 20
0 17 7 20 50 20 49 0 50 1 50 30 l0 30 -90 0 -90 0 0 -130z"/>
<path d="M2730 1820 l0 -130 40 0 c39 0 40 1 40 35 0 25 5 35 15 35 9 0 23
-16 32 -35 15 -32 20 -35 61 -35 l44 0 -26 44 c-25 43 -25 44 -6 61 30 27 27
99 -5 130 -22 23 -32 25 -110 25 l-85 0 0 -130z m144 48 c13 -21 2 -34 -36
-43 -27 -7 -28 -5 -28 30 0 33 2 36 26 33 15 -2 32 -11 38 -20z"/>
</g>
</svg>
